HIERARCHY
ROOT Hips
{
     OFFSET 1.88212 96.90440 -13.34250
     CHANNELS 6 Xposition Yposition Zposition Zrotation Xrotation Yrotation
     JOINT Spine
     {
          OFFSET 0.00000 11.89050 0.00000
          CHANNELS 3 Zrotation Xrotation Yrotation
          JOINT Spine1
          {
               OFFSET -0.00000 25.65740 0.12766
               CHANNELS 3 Zrotation Xrotation Yrotation
               JOINT HEad
               {
                    OFFSET 0.00000 8.73416 0.01134
                    CHANNELS 3 Zrotation Xrotation Yrotation
                    End Site
                    {
                         OFFSET -0.29000 12.77420 2.51395
                    }
               }
               JOINT LeftShoulder1
               {
                    OFFSET 8.99000 -0.36225 -0.22000
                    CHANNELS 3 Zrotation Xrotation Yrotation
                    JOINT LeftArm
                    {
                         OFFSET 10.28270 -0.00338 0.32212
                         CHANNELS 3 Zrotation Xrotation Yrotation
                         JOINT LeftForeArm
                         {
                              OFFSET 32.76690 0.09914 -1.42434
                              CHANNELS 3 Zrotation Xrotation Yrotation
                              JOINT LeftHand
                              {
                                   OFFSET 27.56430 0.08536 1.02216
                                   CHANNELS 3 Zrotation Xrotation Yrotation
                                   End Site
                                   {
                                        OFFSET 16.74430 -0.60000 1.50291
                                   }
                              }
                         }
                    }
               }
               JOINT RightShoulder
               {
                    OFFSET -8.99000 -0.36225 -0.22000
                    CHANNELS 3 Zrotation Xrotation Yrotation
                    JOINT RightArm
                    {
                         OFFSET -10.28270 -0.00338 0.32212
                         CHANNELS 3 Zrotation Xrotation Yrotation
                         JOINT RightForeArm
                         {
                              OFFSET -32.89710 0.09914 -1.42434
                              CHANNELS 3 Zrotation Xrotation Yrotation
                              JOINT RightHand
                              {
                                   OFFSET -27.49210 0.08536 1.02216
                                   CHANNELS 3 Zrotation Xrotation Yrotation
                                   End Site
                                   {
                                        OFFSET -16.63120 -0.60000 1.50291
                                   }
                              }
                         }
                    }
               }
          }
     }
     JOINT LeftUpLeg
     {
          OFFSET 8.94580 -8.66707 0.10165
          CHANNELS 3 Zrotation Xrotation Yrotation
          JOINT LeftLeg
          {
               OFFSET 0.00000 -44.42270 1.37270
               CHANNELS 3 Zrotation Xrotation Yrotation
               JOINT LeftFoot
               {
                    OFFSET -0.25355 -42.09240 -1.46059
                    CHANNELS 3 Zrotation Xrotation Yrotation
                    JOINT LeftToes
                    {
                         OFFSET -0.04000 -4.41509 8.49910
                         CHANNELS 3 Zrotation Xrotation Yrotation
                         End Site
                         {
                              OFFSET 0.08000 -0.04745 9.77979
                         }
                    }
               }
          }
     }
     JOINT RightUpLeg
     {
          OFFSET -8.94580 -8.66707 0.10165
          CHANNELS 3 Zrotation Xrotation Yrotation
          JOINT RightLeg
          {
               OFFSET 0.00000 -44.42270 1.37270
               CHANNELS 3 Zrotation Xrotation Yrotation
               JOINT RightFoot
               {
                    OFFSET 0.25355 -42.09240 -1.46059
                    CHANNELS 3 Zrotation Xrotation Yrotation
                    JOINT RightToes
                    {
                         OFFSET 0.04000 -4.41509 8.49910
                         CHANNELS 3 Zrotation Xrotation Yrotation
                         End Site
                         {
                              OFFSET -0.08000 -0.13745 9.77979
                         }
                    }
               }
          }
     }
}
MOTION
Frames: 19
Frame Time: 0.01667
31.49088 88.44061 -6.47004 1.92092 54.45282 -154.24725 13.17731 42.72279 -11.29168 -0.00551 0.00930 -0.00766 6.06285 11.64026 -29.85895 -2.57405 4.25646 2.85868 -69.96874 -3.52569 -63.14733 -29.46442 28.86385 -91.74839 15.63254 7.07555 -9.30654 36.43655 3.49104 -7.40170 71.04608 -40.80136 72.27026 8.74933 28.77625 93.97748 15.57216 11.36819 5.12278 26.16073 22.82694 -32.48198 -38.86157 17.30748 76.87775 61.81318 -0.00663 0.01368 -60.47208 -34.36388 -78.43004 -49.21952 -35.95700 -38.93045 160.01996 53.00776 -133.21376 -1.52011 0.03228 0.11693 7.40548 64.98951 -9.35219 
31.30172 88.68272 -5.97295 2.66908 51.81540 -155.64925 11.33182 41.67086 -9.98855 -0.00426 0.10720 -0.03015 6.42246 10.92467 -29.30334 -2.32029 4.55334 2.86141 -70.96438 -3.89112 -63.55474 -28.89121 29.74034 -91.80634 15.02831 7.33467 -8.20748 36.24932 3.90149 -7.36784 72.16076 -40.40008 73.08638 8.65287 28.96616 94.84325 15.69767 11.04015 4.48722 24.11755 20.39060 -30.02231 -38.59925 17.58437 77.45977 65.50461 -0.00879 0.00682 -64.13786 -33.80096 -78.32780 -44.43261 -37.59787 -43.49568 171.26962 53.79517 -148.55502 -0.38362 0.05499 0.06493 2.85116 53.57046 -5.90850 
31.14018 88.98413 -5.47042 3.36760 49.45702 -156.86313 10.20483 41.78384 -9.49828 0.00966 0.10144 -0.03000 7.47443 10.63475 -28.73687 0.93366 14.96663 -1.75102 -76.35858 -11.43414 -73.06004 -28.29966 30.85478 -92.10396 15.27837 7.20673 -8.49874 36.02092 3.92387 -6.69069 73.30602 -39.97363 73.98563 8.50166 29.22087 95.67976 15.74078 10.90110 4.17512 22.45656 18.27756 -27.96984 -38.01854 17.59432 77.77257 69.01658 -0.01201 0.00057 -67.55268 -32.93596 -78.17735 -39.40817 -39.36675 -48.24789 182.30258 53.55373 -164.47845 0.09061 0.06859 0.02134 2.59618 50.35868 -5.02994 
30.99477 89.32207 -4.91432 4.09448 47.33061 -158.00153 9.82719 42.85032 -9.76785 0.01970 0.09316 -0.02992 8.99252 10.68734 -28.04095 0.81963 12.66278 -0.66613 -77.05574 -11.02791 -72.36819 -27.90023 32.00100 -92.30477 14.86162 7.36788 -7.70747 35.64954 3.56547 -5.44817 74.43468 -39.44460 74.89036 8.32376 29.49919 96.46900 15.68345 10.51826 3.68889 21.10170 16.46099 -26.21854 -37.14344 17.29331 77.84174 72.37217 -0.01599 -0.00464 -70.67258 -31.79881 -77.95010 -34.60839 -41.25654 -52.31420 191.66237 52.11446 -178.73773 0.36808 0.07848 0.00534 1.80333 43.07880 -3.29239 
30.83816 89.68851 -4.27341 6.23200 43.76748 -160.76781 9.62643 42.94603 -9.40681 0.02585 0.08501 -0.03083 10.79662 11.13595 -27.17409 0.65634 10.01900 0.51212 -77.82920 -10.91084 -71.89152 -27.68436 33.10160 -92.38961 15.04485 7.33548 -7.82529 35.02448 2.88397 -3.75022 75.53976 -38.77626 75.73152 8.14065 29.76555 97.19847 15.59105 10.32318 3.45978 20.01995 13.37260 -23.36638 -36.03348 16.65467 77.71500 75.61348 -0.02043 -0.00870 -73.46415 -30.41415 -77.61587 -30.09838 -45.08154 -56.20208 199.88168 51.58809 -191.76305 0.89927 0.10243 -0.00018 1.35753 39.64964 -1.45353 
30.66639 89.92448 -3.51708 7.95184 40.32997 -163.14098 9.54942 43.24413 -9.25154 0.00916 0.02484 -0.01315 12.38109 11.58844 -26.13299 0.53663 7.48011 2.04024 -78.57484 -10.64877 -71.43837 -28.65261 34.56491 -90.80209 15.59777 7.91984 -9.20309 34.01873 5.32138 -4.16761 79.72181 -36.62862 80.74139 7.91133 30.04594 98.07691 15.48043 10.09315 3.17967 19.05872 10.39250 -20.72999 -34.74494 15.87897 77.53588 78.74230 -0.02483 -0.00927 -76.01321 -28.83604 -77.24277 -24.06947 -47.82493 -58.27848 212.23271 53.50387 -208.00215 1.97420 0.05073 -0.02203 0.81971 34.58481 2.27922 
30.46898 89.86433 -2.62605 9.28966 36.94537 -165.24971 9.50619 43.68248 -9.23614 0.00958 0.02147 -0.01218 13.64620 11.94165 -24.86000 0.50039 4.96347 3.74228 -79.41138 -10.40744 -71.11134 -29.63167 35.91945 -89.47696 15.97155 8.48528 -10.21870 32.89117 6.63437 -3.96392 82.56045 -34.55130 84.01687 7.68364 30.30606 98.96819 15.33641 9.84145 2.86340 18.08591 7.39146 -18.20060 -33.37537 14.99681 77.37548 81.86773 -0.02814 -0.00863 -78.37108 -27.07524 -76.82813 -16.20175 -48.58515 -58.00260 231.44464 55.67484 -229.55174 3.10232 0.04632 -0.04552 1.48737 33.98918 4.83597 
30.24300 89.51644 -1.59951 10.29212 33.56131 -167.19374 9.46374 44.19654 -9.33900 0.01027 0.01957 -0.01373 14.57160 12.24487 -23.37765 1.90990 5.20198 3.49858 -82.36058 -12.57263 -73.17105 -30.60242 37.19621 -88.43430 16.20861 9.03977 -10.93790 31.52237 7.06667 -3.32959 84.55961 -32.57552 86.10329 7.49893 30.51628 99.76839 15.15801 9.59665 2.52908 17.05345 4.25983 -15.72341 -32.03294 14.03448 77.28471 85.11399 -0.02987 -0.00727 -80.61663 -25.15280 -76.37218 -7.32177 -47.25816 -56.05462 254.94679 54.49073 -254.18179 3.76041 0.03013 -0.03345 2.81475 35.83236 6.69461 
30.05008 89.08240 -0.49436 10.64547 29.67451 -169.18024 8.31440 44.07615 -8.63501 -0.00491 -0.01023 -0.00226 15.09637 13.08370 -21.51913 2.82912 4.74459 4.09977 -85.11800 -15.38886 -74.47616 -31.39643 38.61607 -87.46356 18.01350 14.22182 -9.70711 29.61810 6.91371 -2.41023 85.41224 -29.72046 86.27707 7.33137 30.95519 99.81055 17.59538 5.10840 3.55014 15.75074 0.64292 -13.23259 -30.68997 13.21435 76.98061 88.11101 -0.02801 -0.02004 -77.02956 -21.49755 -75.19566 1.81404 -44.35913 -52.73668 276.16940 48.40510 -276.36615 4.05499 0.01554 -0.01282 4.33024 34.08979 5.13415 
29.82467 88.70701 0.56927 10.43742 25.38719 -171.24261 6.30178 43.20457 -7.36191 -0.00682 -0.01141 -0.00113 15.07280 14.44711 -19.28176 3.36642 3.85816 5.27801 -87.94534 -18.99416 -75.32556 -32.02093 40.19183 -86.60435 20.39120 21.15951 -7.87706 27.28617 6.34614 -1.36124 85.36134 -26.01897 85.18164 7.29681 31.49803 99.08341 21.26144 -0.62646 5.97163 14.30844 -3.32235 -10.81435 -29.43188 12.40810 76.46537 90.92271 -0.02798 -0.03144 -75.09885 -18.44123 -73.89913 10.00239 -40.35930 -49.04509 290.87988 39.25611 -293.00388 4.59146 0.02378 -0.04507 4.04913 29.69296 2.88613 
29.57474 88.54842 1.49679 9.69665 20.82491 -173.42564 3.61105 41.63939 -5.69196 -0.00654 -0.01142 -0.00116 14.46849 16.23950 -16.69924 3.63432 2.71214 6.75774 -90.96903 -23.44578 -75.98814 -32.41060 41.98223 -85.92854 22.70176 28.42751 -6.01113 24.74786 5.46319 -0.30611 84.63516 -21.50649 83.37988 7.55819 31.98566 97.56121 25.70354 -5.98253 9.82296 12.76641 -7.52382 -8.51427 -28.19457 11.96477 75.73486 90.06887 0.00804 0.01130 -71.19013 -15.80622 -72.40578 16.65589 -35.55853 -45.41730 300.76108 29.08374 -305.85080 4.94137 0.02496 -0.03637 2.56026 23.43131 0.66061 
29.30136 88.72137 2.17951 7.48195 15.74183 -176.11609 -1.06103 38.41074 -2.87521 -0.01163 -0.03122 0.00179 12.31337 18.89295 -12.98102 2.67358 0.78829 7.90869 -94.07711 -31.28753 -76.35089 -31.41033 44.81306 -86.04758 23.68464 34.53566 -4.83075 22.42330 4.00789 1.42807 81.62389 -15.15710 79.69170 8.93881 32.04803 93.98901 17.66792 6.99529 8.19402 10.76328 -11.70247 -6.39127 -27.03776 11.79441 74.16525 87.91790 0.02925 0.06294 -69.55874 -14.27710 -69.63536 20.54049 -30.29835 -40.52912 307.41321 22.17064 -318.94830 3.61679 -0.02702 -0.06576 -0.90231 12.22875 -0.61180 
29.03725 89.22506 2.56358 5.50723 11.62290 -178.53470 -4.59471 34.87473 -0.92531 -0.00872 -0.02418 0.00034 8.59826 21.82599 -8.09499 1.90431 -0.18078 8.66546 -99.84385 -40.86566 -79.06454 -29.11952 48.66868 -86.98023 19.20875 15.95818 -7.83796 20.37209 3.25607 2.34595 77.96708 -6.72417 76.80187 11.58668 30.96233 89.34830 17.02055 11.11935 8.88608 9.74545 -14.44216 -5.83142 -25.87864 11.71599 71.45020 84.30736 0.02379 0.16076 -66.58971 -11.54241 -65.52174 21.86069 -25.08893 -36.61155 313.52859 16.85052 -332.57776 1.02284 -0.13735 -0.04119 -2.40793 1.27116 0.96511 
28.81512 89.98742 2.62671 3.86914 8.41908 -180.63287 -7.13793 31.28518 0.38508 -0.00973 -0.01442 0.00107 3.44735 24.44852 -2.02872 1.28477 -0.29661 8.86875 -109.82990 -50.90179 -86.00245 -25.16544 53.39697 -89.28178 17.90621 12.90412 -7.71715 18.81771 3.20282 3.00829 75.75017 -1.20317 75.43790 12.93929 28.94474 87.33443 12.21260 19.66458 8.55768 9.44461 -15.71356 -6.61699 -24.86844 10.95686 67.89104 80.08655 -0.00835 0.23943 -64.07342 -9.18521 -60.13277 21.21789 -20.56649 -33.28373 319.99615 13.78653 -345.80865 -2.28610 -0.18695 -0.03857 -0.74488 3.41972 12.03420 
28.65504 90.91343 2.39476 2.61981 6.03453 -182.40901 -8.87991 27.79556 1.27652 -0.01021 -0.00461 0.00074 -2.84577 26.10735 5.08281 0.81505 0.29966 8.50357 -127.49146 -59.48517 -100.81224 -27.91674 60.37429 -88.53317 15.07366 1.57562 -10.11930 17.84548 3.76583 3.35796 74.30712 2.52660 74.71346 13.09728 27.14444 86.85732 13.90613 19.66849 8.25690 9.62671 -15.75322 -8.52205 -23.89490 9.34128 63.96579 75.64910 -0.04680 0.27975 -61.16507 -6.78266 -53.96378 19.23428 -16.67132 -30.16035 328.15839 11.46888 -356.64142 -5.27284 -0.18161 0.04971 -2.15241 -15.46614 7.62264 
28.54076 91.89009 1.93263 1.77822 4.35111 -183.88820 -9.99545 24.47595 1.93428 -0.01046 0.00283 0.00033 -8.64214 27.39778 11.74803 0.43302 1.47455 8.00826 -144.12419 -63.10146 -115.95992 -30.68103 65.13292 -87.23239 15.32221 2.59231 -9.31626 17.34807 4.85022 3.41689 73.42726 5.07131 74.22835 12.43328 25.84146 87.15734 12.04287 22.76291 8.17348 9.33324 -15.51899 -10.81027 -22.41094 7.72660 60.05473 71.66756 -0.07051 0.25057 -58.43638 -4.99690 -47.61146 16.20207 -13.21204 -27.00657 337.82172 9.76500 -365.28238 -10.85617 -0.24007 0.00738 0.50856 -8.15776 17.65455 
28.38019 92.80482 1.33757 1.27634 3.24204 -185.09506 -10.66189 21.35138 2.46622 -0.00940 0.00934 -0.00027 -13.81967 28.38840 17.90326 0.05751 3.09580 7.55147 -156.35204 -64.08760 -127.63342 -33.41804 68.11435 -85.39527 14.28109 -1.96787 -10.59601 17.20467 6.34624 3.19438 72.99263 6.81859 73.78767 11.23696 25.10424 87.85011 13.62961 21.50869 7.89997 8.84896 -15.08462 -13.26487 -21.34744 5.60187 57.43018 68.67304 -0.06506 0.14877 -55.48148 -4.00084 -42.34908 12.32823 -9.86124 -23.61098 347.10825 9.83464 -371.46866 -20.95651 -0.07659 -0.15297 7.67361 -15.57062 16.90236 
28.04888 93.57448 0.69363 1.01589 2.58957 -186.04665 -11.01591 18.43603 2.90997 -0.00799 0.01601 -0.00081 -18.31910 29.15462 23.48297 -0.30864 5.04659 7.09727 -163.91208 -64.13708 -135.20633 -35.72329 69.79774 -83.46225 14.78396 -0.00720 -9.89311 17.26498 8.13631 2.74119 72.93128 7.93365 73.34340 9.78499 24.77804 88.72305 12.72038 22.30240 7.98887 8.33523 -14.45634 -15.72206 -20.51440 3.56092 55.83763 65.84465 -0.05478 0.10162 -52.24063 -3.57497 -38.21528 7.73867 -6.56743 -19.80407 356.18204 8.80522 -376.89560 -21.05176 -0.00962 0.00814 5.05194 -15.51847 18.75055 
27.47417 94.16024 0.04016 0.89766 2.29860 -186.76439 -11.15872 15.74399 3.27624 -0.00662 0.02225 -0.00122 -22.14006 29.77643 28.43414 -0.64619 7.22646 6.62401 -167.99593 -64.03984 -139.58939 -37.19081 70.58059 -82.00507 14.38254 -1.60499 -10.53943 17.42455 10.11666 2.11717 73.15424 8.51538 72.88485 8.26358 24.75149 89.68562 13.75176 20.85602 7.97924 7.70581 -13.79574 -18.11159 -19.12711 3.21123 56.55189 61.41940 -0.06492 0.05326 -48.69160 -4.13706 -36.46398 2.50875 -3.42062 -15.45494 365.11273 6.97961 -381.84476 -25.38073 -0.01307 -0.01549 7.09669 -17.93957 18.36076 
